<svg width="194" height="131" viewBox="0 0 194 131" fill="none" xmlns="http://www.w3.org/2000/svg">
<path d="M88.796 112.785C79.846 124.599 67.3757 130.506 51.385 130.506C35.3943 130.506 22.8643 124.599 13.795 112.785C4.845 100.852 0.37 85.04 0.37 65.35C0.37 45.66 4.845 29.908 13.795 18.094C22.8643 6.16066 35.3943 0.193992 51.385 0.193992C67.3757 0.193992 79.846 6.16066 88.796 18.094C97.8653 29.908 102.4 45.66 102.4 65.35C102.4 85.04 97.8653 100.852 88.796 112.785ZM29.01 65.35C29.01 90.1713 36.4683 102.582 51.385 102.582C66.3017 102.582 73.76 90.1713 73.76 65.35C73.76 40.5287 66.3017 28.118 51.385 28.118C36.4683 28.118 29.01 40.5287 29.01 65.35ZM108.191 128V107.236L150.256 63.56C158.729 54.8487 162.965 47.45 162.965 41.364C162.965 37.426 161.772 34.2637 159.385 31.877C156.998 29.371 153.717 28.118 149.54 28.118C141.187 28.118 135.041 32.6527 131.103 41.722L106.938 27.581C110.757 18.631 116.485 11.829 124.122 7.175C131.759 2.52099 140.113 0.193992 149.182 0.193992C160.877 0.193992 170.841 3.83366 179.075 11.113C187.428 18.273 191.605 27.939 191.605 40.111C191.605 53.357 185.101 66.4837 172.094 79.491L151.33 100.434H193.395V128H108.191Z" fill="white"/>
</svg>
