<svg width="196" height="131" viewBox="0 0 196 131" fill="none" xmlns="http://www.w3.org/2000/svg">
<path d="M88.796 112.785C79.846 124.599 67.3757 130.506 51.385 130.506C35.3943 130.506 22.8643 124.599 13.795 112.785C4.845 100.852 0.37 85.04 0.37 65.35C0.37 45.66 4.845 29.908 13.795 18.094C22.8643 6.16066 35.3943 0.193992 51.385 0.193992C67.3757 0.193992 79.846 6.16066 88.796 18.094C97.8653 29.908 102.4 45.66 102.4 65.35C102.4 85.04 97.8653 100.852 88.796 112.785ZM29.01 65.35C29.01 90.1713 36.4683 102.582 51.385 102.582C66.3017 102.582 73.76 90.1713 73.76 65.35C73.76 40.5287 66.3017 28.118 51.385 28.118C36.4683 28.118 29.01 40.5287 29.01 65.35ZM168.739 53.536C176.734 56.2807 183.178 60.7557 188.071 66.961C192.964 73.047 195.41 80.2667 195.41 88.62C195.41 101.747 190.995 112.009 182.164 119.408C173.333 126.807 162.534 130.506 149.765 130.506C139.86 130.506 130.97 128.239 123.094 123.704C115.337 119.169 109.609 112.487 105.91 103.656L130.612 89.336C133.715 98.1667 140.099 102.582 149.765 102.582C155.374 102.582 159.61 101.269 162.474 98.644C165.338 96.0187 166.77 92.6773 166.77 88.62C166.77 84.5627 165.338 81.2213 162.474 78.596C159.61 75.9707 155.374 74.658 149.765 74.658H143.858L132.939 58.369L155.672 29.55H109.848V2.69999H190.398V25.97L168.739 53.536Z" fill="white"/>
</svg>
