<svg width="164" height="131" viewBox="0 0 164 131" fill="none" xmlns="http://www.w3.org/2000/svg">
<path d="M88.796 112.785C79.846 124.599 67.3757 130.506 51.385 130.506C35.3943 130.506 22.8643 124.599 13.795 112.785C4.845 100.852 0.37 85.04 0.37 65.35C0.37 45.66 4.845 29.908 13.795 18.094C22.8643 6.16066 35.3943 0.193992 51.385 0.193992C67.3757 0.193992 79.846 6.16066 88.796 18.094C97.8653 29.908 102.4 45.66 102.4 65.35C102.4 85.04 97.8653 100.852 88.796 112.785ZM29.01 65.35C29.01 90.1713 36.4683 102.582 51.385 102.582C66.3017 102.582 73.76 90.1713 73.76 65.35C73.76 40.5287 66.3017 28.118 51.385 28.118C36.4683 28.118 29.01 40.5287 29.01 65.35ZM138.8 2.69999H163.86V128H135.22V32.951L113.024 39.037L106.043 14.514L138.8 2.69999Z" fill="white"/>
</svg>
