<svg width="163" height="35" viewBox="0 0 163 35" fill="none" xmlns="http://www.w3.org/2000/svg">
<path fill-rule="evenodd" clip-rule="evenodd" d="M-0.150879 0.702054V34.3021H13.3811C15.5625 34.3554 17.731 33.954 19.7488 33.1235C21.7666 32.293 23.5894 31.0515 25.1011 29.4781C26.6508 27.9008 27.8667 26.0274 28.6763 23.9697C29.4858 21.9121 29.8725 19.7124 29.8131 17.5021C29.8725 15.2917 29.4858 13.092 28.6763 11.0344C27.8667 8.97675 26.6508 7.10336 25.1011 5.52605C23.5892 3.95276 21.7665 2.71136 19.7487 1.88085C17.731 1.05034 15.5625 0.648895 13.3811 0.702054H-0.150879ZM7.58212 26.9101V8.09105H13.3821C14.5846 8.04315 15.7839 8.24682 16.9032 8.68901C18.0224 9.13121 19.0371 9.80221 19.8821 10.6591C20.7306 11.5767 21.3876 12.6542 21.815 13.8286C22.2423 15.003 22.4314 16.2508 22.3711 17.4991C22.4315 18.7474 22.2424 19.9952 21.8151 21.1696C21.3877 22.344 20.7306 23.4215 19.8821 24.3391C19.0372 25.1961 18.0226 25.8672 16.9033 26.3094C15.784 26.7517 14.5847 26.9552 13.3821 26.9071H7.58212V26.9101ZM42.3821 20.9581H54.4641V13.6581H42.3781V8.09105H55.6691V0.702054H34.6451V34.3021H55.9101V26.9101H42.3781V20.9581H42.3821ZM78.7251 34.3021L89.7441 0.702054H81.2861L73.7951 25.4221L66.3041 0.702054H57.8471L68.8661 34.3021H78.7251ZM93.1251 34.3021H100.858V0.702054H93.1251V34.3021ZM131.74 32.8861C134.233 31.574 136.322 29.6076 137.781 27.1981L131.111 23.3581C130.381 24.659 129.279 25.7121 127.946 26.3821C126.505 27.1263 124.904 27.5041 123.282 27.4821C121.962 27.5449 120.643 27.3343 119.408 26.8635C118.173 26.3927 117.048 25.6718 116.105 24.7461C115.195 23.7792 114.489 22.6394 114.028 21.3943C113.568 20.1492 113.362 18.8242 113.423 17.4981C113.362 16.1719 113.568 14.8469 114.028 13.6018C114.489 12.3567 115.195 11.2169 116.105 10.2501C117.048 9.32428 118.173 8.60339 119.408 8.13258C120.643 7.66177 121.962 7.45119 123.282 7.51405C124.893 7.49104 126.486 7.86178 127.921 8.59405C129.263 9.27186 130.373 10.3327 131.111 11.6421L137.781 7.80205C136.294 5.39752 134.191 3.43384 131.691 2.11405C129.109 0.72096 126.216 0.0027445 123.282 0.0260544C113.503 -0.245946 105.485 7.71705 105.691 17.4981C105.483 27.2791 113.5 35.2451 123.279 34.9741C126.229 35.0013 129.139 34.2831 131.737 32.8861H131.74ZM149.621 20.9581H161.703V13.6581H149.618V8.09105H162.908V0.702054H141.885V34.3021H163.15V26.9101H149.618V20.9581H149.621Z" fill="#F0C52E"/>
</svg>
